<?xml version="1.0" encoding="utf-8"?>
<!-- Generator: Adobe Illustrator 16.0.4, SVG Export Plug-In . SVG Version: 6.00 Build 0)  -->
<!DOCTYPE svg PUBLIC "-//W3C//DTD SVG 1.1//EN" "http://www.w3.org/Graphics/SVG/1.1/DTD/svg11.dtd">
<svg version="1.1" id="Layer_1" xmlns="http://www.w3.org/2000/svg" xmlns:xlink="http://www.w3.org/1999/xlink" x="0px" y="0px"
	 width="267.197px" height="96px" viewBox="67.75 112.5 267.197 96" enable-background="new 67.75 112.5 267.197 96"
	 xml:space="preserve">
<g id="new_R_x3D_2_1_">
	<polyline fill="#1B2C34" points="286.924,112.477 265.764,133.662 286.924,154.823 308.076,133.65 286.924,112.477 	"/>
	<polyline fill="#18688B" points="286.924,112.477 286.924,154.823 308.076,133.65 286.924,112.477 	"/>
	<polyline fill="#299CD0" points="313.74,139.318 292.582,160.479 313.74,181.662 334.947,160.545 313.74,139.318 	"/>
	<polyline fill="#935423" points="286.92,166.141 265.74,187.318 286.885,208.482 308.076,187.346 286.92,166.141 	"/>
	<polyline fill="#E28A25" points="286.92,166.141 286.885,208.482 308.076,187.346 286.92,166.141 	"/>
</g>
<g>
	<path d="M104.395,178.809l-3.577-10.438H80.306l-3.577,10.438h-8.395l19.053-51.975h6.351l19.053,51.975H104.395z M90.744,138.587
		l-8.103,23.067h15.986L90.744,138.587z"/>
	<path d="M124.763,162.457c0,6.351,3.358,10.365,9.417,10.365c4.16,0,6.351-1.168,8.979-3.795l4.745,4.452
		c-3.796,3.796-7.373,5.767-13.87,5.767c-9.271,0-16.644-4.891-16.644-18.979c0-11.973,6.205-18.907,15.694-18.907
		c9.928,0,15.695,7.3,15.695,17.812v3.285H124.763z M140.385,152.237c-1.168-2.774-3.797-4.672-7.301-4.672
		c-3.503,0-6.204,1.897-7.372,4.672c-0.73,1.679-0.876,2.774-0.949,5.037h16.644C141.333,155.012,141.114,153.916,140.385,152.237z"
		/>
	<path d="M179,150.485c-1.679-1.679-2.992-2.481-5.547-2.481c-4.016,0-7.373,3.211-7.373,8.321v22.483h-7.446v-37.01h7.3v4.015
		c1.898-2.628,5.694-4.453,9.855-4.453c3.576,0,6.277,0.949,8.832,3.504L179,150.485z"/>
	<path d="M190.461,134.499v-7.884h7.885v7.884H190.461z M190.681,178.809v-37.01h7.445v37.01H190.681z"/>
	<path d="M230.172,178.809l-7.737-12.629l-7.811,12.629h-8.979l12.702-18.906l-12.19-18.104h8.979l7.3,12.045l7.227-12.045h8.979
		l-12.118,18.104l12.629,18.906H230.172z"/>
</g>
</svg>
