<?xml version="1.0" encoding="utf-8"?>
<!-- Generator: Adobe Illustrator 16.0.4, SVG Export Plug-In . SVG Version: 6.00 Build 0)  -->
<!DOCTYPE svg PUBLIC "-//W3C//DTD SVG 1.1//EN" "http://www.w3.org/Graphics/SVG/1.1/DTD/svg11.dtd">
<svg version="1.1" id="Layer_1" xmlns="http://www.w3.org/2000/svg" xmlns:xlink="http://www.w3.org/1999/xlink" x="0px" y="0px"
	 width="262.5px" height="96px" viewBox="-17.5 0 262.5 96" enable-background="new -17.5 0 262.5 96" xml:space="preserve">
<g>
	<path d="M-10.577,66.854h-6.083L6.902,12.337h5.39L35.7,66.854h-6.16l-6.006-14.322H-4.647L-10.577,66.854z M-2.569,47.449h24.024
		L9.443,18.497L-2.569,47.449z"/>
	<path d="M76.202,47.757c0,0.359,0,0.745,0,1.155c0,0.412-0.026,0.848-0.077,1.309H46.249c0.051,1.797,0.411,3.492,1.078,5.082
		c0.667,1.592,1.591,2.979,2.772,4.158c1.18,1.182,2.566,2.117,4.158,2.811c1.59,0.693,3.311,1.039,5.159,1.039
		c2.721,0,5.069-0.627,7.046-1.887c1.975-1.256,3.477-2.707,4.504-4.35l3.927,3.08c-2.156,2.721-4.531,4.672-7.123,5.852
		c-2.592,1.18-5.378,1.771-8.354,1.771c-2.669,0-5.147-0.475-7.43-1.426c-2.285-0.949-4.249-2.271-5.891-3.965
		c-1.644-1.693-2.939-3.695-3.889-6.006c-0.95-2.311-1.424-4.824-1.424-7.545c0-2.721,0.462-5.237,1.386-7.547
		c0.924-2.31,2.206-4.312,3.85-6.006c1.643-1.693,3.567-3.015,5.775-3.965c2.206-0.949,4.593-1.425,7.161-1.425
		c2.823,0,5.313,0.476,7.469,1.425c2.156,0.95,3.952,2.232,5.39,3.85c1.437,1.617,2.528,3.504,3.273,5.659
		C75.829,42.983,76.202,45.293,76.202,47.757z M70.889,46.063c-0.154-3.388-1.245-6.198-3.272-8.432
		c-2.028-2.232-4.916-3.35-8.663-3.35c-1.746,0-3.363,0.321-4.851,0.963c-1.489,0.643-2.798,1.515-3.927,2.618
		c-1.13,1.104-2.028,2.361-2.695,3.772c-0.668,1.413-1.053,2.888-1.155,4.428H70.889z"/>
	<path d="M87.366,34.975c-0.052-1.54-0.129-2.926-0.231-4.158h5.005c0.103,0.976,0.179,2.054,0.231,3.234
		c0.051,1.182,0.077,2.155,0.077,2.926h0.154c1.026-2.104,2.566-3.812,4.62-5.12c2.053-1.31,4.362-1.964,6.93-1.964
		c0.667,0,1.271,0.026,1.81,0.077c0.539,0.052,1.09,0.154,1.655,0.308l-0.693,5.005c-0.308-0.102-0.822-0.204-1.54-0.308
		c-0.72-0.103-1.438-0.154-2.156-0.154c-1.386,0-2.721,0.257-4.004,0.769c-1.284,0.513-2.4,1.319-3.35,2.42
		c-0.95,1.101-1.72,2.509-2.31,4.225c-0.59,1.715-0.885,3.777-0.885,6.184v18.436h-5.236V38.748
		C87.443,37.774,87.417,36.515,87.366,34.975z"/>
	<path d="M121.553,16.957c0,1.078-0.385,1.964-1.155,2.657c-0.77,0.692-1.617,1.039-2.541,1.039s-1.771-0.347-2.541-1.039
		c-0.77-0.693-1.155-1.579-1.155-2.657c0-1.077,0.385-1.963,1.155-2.656c0.77-0.692,1.617-1.039,2.541-1.039
		s1.771,0.347,2.541,1.039C121.168,14.994,121.553,15.879,121.553,16.957z M120.476,66.854h-5.236V30.817h5.236V66.854z"/>
	<path d="M142.883,48.219l-13.321-17.402h6.698l9.856,13.706l9.856-13.706h6.314l-13.091,17.171l14.322,18.866h-6.776
		l-10.703-15.016l-11.011,15.016h-6.313L142.883,48.219z"/>
</g>
<g id="new_R_x3D_2_1_">
	<polyline fill="#1B2C34" points="197.166,-0.023 176.006,21.162 197.166,42.323 218.318,21.15 197.166,-0.023 	"/>
	<polyline fill="#18688B" points="197.166,-0.023 197.166,42.323 218.318,21.15 197.166,-0.023 	"/>
	<polyline fill="#299CD0" points="223.982,26.819 202.824,47.979 223.982,69.162 245.189,48.045 223.982,26.819 	"/>
	<polyline fill="#935423" points="197.162,53.641 175.982,74.818 197.127,95.982 218.318,74.846 197.162,53.641 	"/>
	<polyline fill="#E28A25" points="197.162,53.641 197.127,95.982 218.318,74.846 197.162,53.641 	"/>
</g>
</svg>
