<?xml version="1.0" encoding="utf-8"?>
<!-- Generator: Adobe Illustrator 16.0.0, SVG Export Plug-In . SVG Version: 6.00 Build 0)  -->
<!DOCTYPE svg PUBLIC "-//W3C//DTD SVG 1.1//EN" "http://www.w3.org/Graphics/SVG/1.1/DTD/svg11.dtd">
<svg version="1.1" id="Logos" xmlns="http://www.w3.org/2000/svg" xmlns:xlink="http://www.w3.org/1999/xlink" x="0px" y="0px"
	 width="194.729px" height="64.779px" viewBox="0 0 194.729 64.779" enable-background="new 0 0 194.729 64.779"
	 xml:space="preserve">
<g>
	<path fill="#1A2C33" d="M-0.06,43.117l3.12-1.08l12.12-36.66h5.76l12.78,36.66l2.76,1.08l-0.66,3.721h-14.1v-3.541l5.28-1.26
		l-2.88-8.88H11.28l-2.76,8.88l5.16,1.2v3.601H0.72L-0.06,43.117z M12.84,27.998h9.6l-4.92-15.061L12.84,27.998z"/>
	<path opacity="0" fill="#1A2C33" d="M60.959,25.598c0,1.24-0.21,2.45-0.63,3.63c-0.42,1.181-1.23,2.25-2.43,3.21
		c-2.721,2.16-7.161,3.28-13.32,3.359c0.639,3.16,2.259,5.241,4.86,6.24c0.92,0.36,1.92,0.541,3,0.541s2-0.091,2.76-0.271
		c0.759-0.181,1.419-0.39,1.98-0.63c1.08-0.52,1.839-1,2.28-1.44l1.32,4.2c-0.44,0.44-1.18,0.881-2.22,1.32
		c-4,1.639-7.92,1.779-11.76,0.42c-3.48-1.24-5.88-3.66-7.2-7.26c-0.681-1.801-1.02-3.91-1.02-6.33s0.36-4.561,1.08-6.42
		c0.72-1.86,1.68-3.41,2.88-4.65c2.4-2.56,5.4-3.84,9-3.84c2.64,0,4.86,0.7,6.66,2.1C60.039,21.258,60.959,23.197,60.959,25.598z
		 M55.259,26.078c0-1.12-0.3-2.041-0.9-2.761s-1.47-1.08-2.61-1.08s-2.1,0.181-2.88,0.54c-0.78,0.359-1.491,0.9-2.13,1.62
		c-1.4,1.641-2.22,3.96-2.46,6.96c2.919,0,5.1-0.229,6.54-0.689s2.54-1.061,3.3-1.801C54.878,28.128,55.259,27.197,55.259,26.078z"
		/>
	<path fill="#1A2C33" d="M73.798,20.498c1.599-1.84,3.68-2.761,6.24-2.761c1.76,0,3.25,0.44,4.47,1.32
		c1.22,0.88,2.13,1.96,2.73,3.239l-5.94,3l-1.86-2.879c-1.36,0-2.58,0.58-3.66,1.739c-1.121,1.161-1.68,2.7-1.68,4.62v12.96
		c0,0.161,0.339,0.3,1.02,0.42l6.78,1.44v3.24h-16.2l-0.72-3.24l3.72-0.84V22.537h-3.3l-0.54-3.539
		c2.239-0.361,4.599-0.781,7.08-1.261L73.798,20.498z"/>
	<path fill="#1A2C33" d="M98.458,42.637l3.54,0.961v3.24h-12l-0.66-3.24l3.72-0.84v-20.4l-3.3,0.24l-0.6-3.6l7.38-1.32l1.92,1.92
		V42.637z M91.138,6.877c0-1.039,0.36-1.92,1.08-2.64c0.72-0.72,1.6-1.08,2.64-1.08c1.04,0,1.92,0.381,2.64,1.14
		c0.72,0.761,1.08,1.641,1.08,2.641s-0.36,1.859-1.08,2.58c-0.72,0.72-1.601,1.08-2.64,1.08c-1.041,0-1.92-0.36-2.64-1.08
		C91.498,8.797,91.138,7.918,91.138,6.877z"/>
	<path fill="#1A2C33" d="M118.258,28.237l5.76-10.56h5.4v3.779h-2.28l-6.42,10.92l6.36,10.561h2.58v3.9h-7.021l-6.06-10.141
		l-5.821,10.141h-5.34l-0.24-3.78h2.52l6.24-10.74l-6.3-10.681h-2.46v-3.959h6.72L118.258,28.237z"/>
</g>
<g>
	<g>
		
			<rect x="151.559" y="4.476" transform="matrix(0.7071 -0.7071 0.7071 0.7071 36.7499 119.2846)" fill="#1A2C33" width="21.611" height="21.611"/>
	</g>
	<polygon fill="#15678A" points="162.364,0 162.364,30.562 177.646,15.281 	"/>
	<g>
		
			<rect x="168.642" y="21.61" transform="matrix(0.7071 -0.7071 0.7071 0.7071 29.6343 136.3787)" fill="#259CCF" width="21.612" height="21.612"/>
	</g>
	<g>
		
			<rect x="151.559" y="38.693" transform="matrix(0.7071 -0.7071 0.7071 0.7071 12.555 129.3065)" fill="#945205" width="21.611" height="21.611"/>
	</g>
	<polygon fill="#E38A24" points="162.364,34.217 162.364,64.779 177.646,49.498 	"/>
</g>
<path fill="#1A2C33" d="M52.085,47.107c4.578,0,7.359-1.771,9.25-2.927l-1.844-3.984c-1.998,1.534-3.938,2.422-7.281,2.422
	c-3.469,0-7.75-1.469-7.75-6.719c0-1.734,0.007-3.578,0.007-6.578c0-2.067,0.54-7.073,5.759-7.054
	c6.016,0.022,6.159,4.085,6.144,7.368c0,0-8.407,0.011-11.972,0.011v4.5c5.614,0,17.105,0.003,17.105,0.003
	c0-2.481,0.27-9.167-1.793-12.292c-2.673-4.051-6.01-4.187-9.635-4.187c-6.448,0-11.261,3.312-11.261,12.062
	c0,5.646,0,1.708,0,5.541C38.814,43.274,44.272,47.107,52.085,47.107z"/>
</svg>
