<?xml version="1.0" encoding="utf-8"?>
<!-- Generator: Adobe Illustrator 16.0.4, SVG Export Plug-In . SVG Version: 6.00 Build 0)  -->
<!DOCTYPE svg PUBLIC "-//W3C//DTD SVG 1.1//EN" "http://www.w3.org/Graphics/SVG/1.1/DTD/svg11.dtd">
<svg version="1.1" id="Layer_1" xmlns="http://www.w3.org/2000/svg" xmlns:xlink="http://www.w3.org/1999/xlink" x="0px" y="0px"
	 width="245px" height="96px" viewBox="0 0 245 96" enable-background="new 0 0 245 96" xml:space="preserve">
<g>
	<g enable-background="new    ">
		<path d="M0.293,61.177l3.846-1.331l14.94-45.19h7.101l15.753,45.19l3.402,1.331l-0.813,4.586H27.141v-4.363l6.509-1.554
			L30.1,48.899H14.272L10.87,59.846l6.361,1.479v4.438H1.255L0.293,61.177z M16.195,42.539h11.834l-6.065-18.564L16.195,42.539z"/>
	</g>
	<path d="M91.337,33.294c1.972-2.268,4.536-3.402,7.692-3.402c2.169,0,4.005,0.543,5.51,1.627c1.503,1.085,2.625,2.417,3.365,3.994
		l-7.322,3.698l-2.293-3.551c-1.677,0-3.18,0.716-4.511,2.146c-1.381,1.431-2.071,3.328-2.071,5.694v15.976
		c0,0.198,0.418,0.37,1.257,0.519l8.358,1.774v3.994h-19.97l-0.887-3.994l4.585-1.035V35.809h-4.068l-0.666-4.364
		c2.761-0.443,5.669-0.961,8.727-1.553L91.337,33.294z"/>
	<path d="M121.735,60.585l4.364,1.184v3.994h-14.792l-0.813-3.994l4.585-1.035V35.587l-4.068,0.296l-0.739-4.438l9.097-1.627
		l2.367,2.367V60.585z M112.711,16.504c0-1.281,0.444-2.367,1.332-3.254c0.887-0.888,1.971-1.332,3.254-1.332
		c1.281,0,2.367,0.469,3.254,1.405c0.888,0.938,1.332,2.022,1.332,3.254c0,1.233-0.444,2.292-1.332,3.18
		c-0.887,0.888-1.973,1.331-3.254,1.331c-1.283,0-2.367-0.443-3.254-1.331C113.155,18.871,112.711,17.787,112.711,16.504z"/>
	<path d="M146.141,42.835l7.102-13.018h6.656v4.66h-2.811l-7.914,13.461l7.84,13.017h3.18v4.808h-8.652l-7.471-12.499l-7.174,12.499
		h-6.583l-0.296-4.659h3.106l7.692-13.239l-7.766-13.165h-3.033v-4.882h8.283L146.141,42.835z"/>
	<path d="M64.57,66.096c5.643,0,9.072-2.183,11.402-3.607L73.7,57.576c-2.463,1.893-4.854,2.984-8.976,2.984
		c-4.276,0-9.553-1.811-9.553-8.281c0-2.139,0.009-4.41,0.009-8.108c0-2.549,0.666-8.719,7.099-8.695
		c7.416,0.028,7.592,5.036,7.573,9.083c0,0-10.363,0.014-14.757,0.014v5.548c6.921,0,21.085,0.003,21.085,0.003
		c0-3.059,0.333-11.3-2.21-15.152c-3.294-4.993-7.408-5.159-11.876-5.159c-7.949,0-13.881,4.082-13.881,14.87
		c0,6.957,0,2.104,0,6.829C48.212,61.371,54.939,66.096,64.57,66.096z"/>
</g>
<g id="new_R_x3D_2_1_">
	<polyline fill="#1B2C34" points="197.166,-0.023 176.006,21.162 197.166,42.323 218.318,21.15 197.166,-0.023 	"/>
	<polyline fill="#18688B" points="197.166,-0.023 197.166,42.323 218.318,21.15 197.166,-0.023 	"/>
	<polyline fill="#299CD0" points="223.982,26.819 202.824,47.979 223.982,69.162 245.189,48.045 223.982,26.819 	"/>
	<polyline fill="#935423" points="197.162,53.641 175.982,74.818 197.127,95.982 218.318,74.846 197.162,53.641 	"/>
	<polyline fill="#E28A25" points="197.162,53.641 197.127,95.982 218.318,74.846 197.162,53.641 	"/>
</g>
</svg>
