<?xml version="1.0" encoding="utf-8"?>
<!-- Generator: Adobe Illustrator 16.0.4, SVG Export Plug-In . SVG Version: 6.00 Build 0)  -->
<!DOCTYPE svg PUBLIC "-//W3C//DTD SVG 1.1//EN" "http://www.w3.org/Graphics/SVG/1.1/DTD/svg11.dtd">
<svg version="1.1" xmlns="http://www.w3.org/2000/svg" xmlns:xlink="http://www.w3.org/1999/xlink" x="0px" y="0px" width="1024px"
	 height="1024px" viewBox="0 0 1024 1024" enable-background="new 0 0 1024 1024" xml:space="preserve">
<g id="Layer_1" display="none">
	<g id="JDdHAB_1_" display="inline">
		<image overflow="visible" width="1024" height="1024" id="JDdHAB_2_" xlink:href="14C183A5436CEA4B.png" >
		</image>
	</g>
	<circle display="inline" fill="#9AB2BB" cx="512" cy="512" r="472"/>
	<g display="inline">
		<defs>
			<circle id="SVGID_1_" cx="512" cy="512" r="472"/>
		</defs>
		<clipPath id="SVGID_2_">
			<use xlink:href="#SVGID_1_"  overflow="visible"/>
		</clipPath>
		<polygon clip-path="url(#SVGID_2_)" fill="#16465A" points="511.316,779.547 840,936 1072,520 752,352 		"/>
	</g>
	<polygon display="inline" fill="#E2B847" points="758.891,638.453 511.234,781.047 263.918,637.867 264.262,352.09 511.922,209.5 
		759.234,352.68 	"/>
	<polygon display="inline" fill="#71391B" points="512.004,544 512.688,779.547 760,636.367 759.656,350.59 512,208 	"/>
	<circle display="inline" fill="#1A2C33" cx="512" cy="496" r="40"/>
	
		<line display="inline" fill="none" stroke="#1A2C33" stroke-width="32" stroke-miterlimit="10" x1="512" y1="536" x2="512" y2="776"/>
	<g display="inline">
		<defs>
			<polygon id="SVGID_3_" points="758.891,638.453 511.234,781.047 263.918,637.867 264.262,352.09 511.922,209.5 759.234,352.68 
							"/>
		</defs>
		<clipPath id="SVGID_4_">
			<use xlink:href="#SVGID_3_"  overflow="visible"/>
		</clipPath>
		<rect x="328" y="200" clip-path="url(#SVGID_4_)" fill="#EFDFBE" width="128" height="576"/>
	</g>
</g>
<g id="Layer_2">
	<g opacity="0.6">
		<g opacity="0.2">
			<circle cx="532" cy="532" r="472"/>
		</g>
		<g>
			<circle fill="#0D3542" cx="512" cy="512" r="472"/>
		</g>
	</g>
	<g>
		<defs>
			<circle id="SVGID_5_" cx="512" cy="512" r="472"/>
		</defs>
		<clipPath id="SVGID_6_">
			<use xlink:href="#SVGID_5_"  overflow="visible"/>
		</clipPath>
		<g clip-path="url(#SVGID_6_)">
			<linearGradient id="SVGID_7_" gradientUnits="userSpaceOnUse" x1="570.2402" y1="315.1719" x2="883.2251" y2="857.2776">
				<stop  offset="0" style="stop-color:#0D3542"/>
				<stop  offset="1" style="stop-color:#0D3542;stop-opacity:0.1"/>
			</linearGradient>
			<polygon fill="url(#SVGID_7_)" points="1024,104 936,104 256,768 264,776 1024,776 			"/>
			<path fill="#E3B74A" d="M608,224c0,0-24,104-240,216c-15.883,8.234-22.594,20.773-24,32c-16,128-57.024,223.282-96.004,280
				c-6.555,9.537-2.98,38.027,32.004,16c88.269-55.576,207.555-96,280-96c8,0,24.211-7.898,32-24c120-248,200-240,200-240L608,224z"
				/>
			<g>
				<defs>
					<path id="SVGID_8_" d="M608,224c0,0-24,104-240,216c-15.883,8.234-22.594,20.773-24,32c-16,128-56,224-96.004,280
						c-10.398,14.555,1.816,35.203,32.004,16c88-56,207.555-96,280-96c8,0,24.211-7.898,32-24c120-248,200-240,200-240L608,224z"/>
				</defs>
				<clipPath id="SVGID_9_">
					<use xlink:href="#SVGID_8_"  overflow="visible"/>
				</clipPath>
				<path clip-path="url(#SVGID_9_)" fill="#F0E0BF" d="M324.352,512c0,0,168-96,320-240S696,298,696,298L272,666L324.352,512z"/>
			</g>
			<g>
				<defs>
					<path id="SVGID_10_" d="M608,224c0,0-24,104-240,216c-15.883,8.234-22.594,20.773-24,32c-16,128-55.775,218.484-92,277
						c-13,21-2.188,38.203,28,19c88-56,207.555-96,280-96c8,0,24.211-7.898,32-24c120-248,200-240,200-240L608,224z"/>
				</defs>
				<clipPath id="SVGID_11_">
					<use xlink:href="#SVGID_10_"  overflow="visible"/>
				</clipPath>
				<path opacity="0.7" clip-path="url(#SVGID_11_)" fill="#71391B" d="M513,688c0,0,138-223,251.352-320
					C828.964,312.708,744,348,744,348L368,738L513,688z"/>
			</g>
			<path fill="#0D3542" d="M828.539-24C788.539,8,632,152,568,176c-16.75,6.281-3.461,24-3.461,24L813,447.161
				c0,0,18.602,22.141,32-8c32-72,211-247.161,251-279.161S828.539-24,828.539-24z"/>
			<path fill="#0D3542" d="M580,264l166,171c0,0-7,20-30.727,16.99L561.289,293.9C556,271,580,264,580,264z"/>
			<circle fill="#71391B" cx="476" cy="548" r="20"/>
			<line fill="none" stroke="#71391B" stroke-width="4" stroke-miterlimit="10" x1="250" y1="773" x2="464" y2="560"/>
		</g>
	</g>
	<g display="none">
		<defs>
			<path id="SVGID_12_" d="M1024,512c0,282.773-229.227,512-512,512C229.234,1024,0,794.773,0,512C0,229.23,229.234,0,512,0
				C794.773,0,1024,229.23,1024,512z"/>
		</defs>
		<clipPath id="SVGID_13_" display="inline">
			<use xlink:href="#SVGID_12_"  overflow="visible"/>
		</clipPath>
		<g id="Qk8Vq5_1_" display="inline" clip-path="url(#SVGID_13_)">
			
				<image overflow="visible" width="1280" height="1024" id="Qk8Vq5_2_" xlink:href="14C183A5436CEA49.png"  transform="matrix(3.4531 0 0 3.4531 -1188 -1680)">
			</image>
		</g>
	</g>
</g>
</svg>
