<?xml version="1.0" encoding="utf-8"?>
<!-- Generator: Adobe Illustrator 16.0.4, SVG Export Plug-In . SVG Version: 6.00 Build 0)  -->
<!DOCTYPE svg PUBLIC "-//W3C//DTD SVG 1.1//EN" "http://www.w3.org/Graphics/SVG/1.1/DTD/svg11.dtd">
<svg version="1.1" id="Layer_1" xmlns="http://www.w3.org/2000/svg" xmlns:xlink="http://www.w3.org/1999/xlink" x="0px" y="0px"
	 width="944px" height="944px" viewBox="448.5 576.5 944 944" enable-background="new 448.5 576.5 944 944" xml:space="preserve">
<g>
	<g opacity="0.6">
		<g>
			<circle fill="#0D3542" cx="920.5" cy="1048.5" r="472"/>
		</g>
	</g>
	<g>
		<g>
			<defs>
				<circle id="SVGID_1_" cx="920.5" cy="1048.5" r="472"/>
			</defs>
			<clipPath id="SVGID_2_">
				<use xlink:href="#SVGID_1_"  overflow="visible"/>
			</clipPath>
			<g id="Layer_2" clip-path="url(#SVGID_2_)">
				
					<linearGradient id="SVGID_3_" gradientUnits="userSpaceOnUse" x1="1212.2402" y1="-183.6709" x2="1525.2251" y2="-725.7766" gradientTransform="matrix(1 0 0 -1 -233.5 668)">
					<stop  offset="0" style="stop-color:#0D3542"/>
					<stop  offset="1" style="stop-color:#0D3542;stop-opacity:0.1"/>
				</linearGradient>
				<polygon fill="url(#SVGID_3_)" points="1432.5,640.5 1344.5,640.5 664.5,1304.5 672.5,1312.5 1432.5,1312.5 				"/>
				<path fill="#E3B74A" d="M1016.5,760.5c0,0-24,104-240,216c-15.883,8.234-22.594,20.773-24,32c-16,128-57.023,223.282-96.004,280
					c-6.555,9.537-2.98,38.027,32.004,16c88.269-55.576,207.555-96,280-96c8,0,24.211-7.898,32-24c120-248,200-240,200-240
					L1016.5,760.5z"/>
				<g>
					<g>
						<defs>
							<path id="SVGID_4_" d="M1016.5,760.5c0,0-24,104-240,216c-15.883,8.234-22.594,20.773-24,32c-16,128-56,224-96.004,280
								c-10.398,14.555,1.816,35.203,32.004,16c88-56,207.555-96,280-96c8,0,24.211-7.898,32-24c120-248,200-240,200-240
								L1016.5,760.5z"/>
						</defs>
						<clipPath id="SVGID_5_">
							<use xlink:href="#SVGID_4_"  overflow="visible"/>
						</clipPath>
						<path clip-path="url(#SVGID_5_)" fill="#F0E0BF" d="M732.852,1048.5c0,0,168-96,320-240s51.648,26,51.648,26l-424,368
							L732.852,1048.5z"/>
					</g>
					<g>
						<g>
							<defs>
								<path id="SVGID_6_" d="M1016.5,760.5c0,0-24,104-240,216c-15.883,8.234-22.594,20.773-24,32c-16,128-55.775,218.484-92,277
									c-13,21-2.188,38.203,28,19c88-56,207.555-96,280-96c8,0,24.211-7.898,32-24c120-248,200-240,200-240L1016.5,760.5z"/>
							</defs>
							<clipPath id="SVGID_7_">
								<use xlink:href="#SVGID_6_"  overflow="visible"/>
							</clipPath>
							<path opacity="0.7" clip-path="url(#SVGID_7_)" fill="#71391B" enable-background="new    " d="M921.5,1224.5
								c0,0,138-223,251.352-320c64.612-55.292-20.352-20-20.352-20l-376,390L921.5,1224.5z"/>
						</g>
						<path fill="#0D3542" d="M1237.039,512.5c-40,32-196.539,176-260.539,200c-16.75,6.281-3.461,24-3.461,24L1221.5,983.661
							c0,0,18.602,22.141,32-8c32-72,211-247.161,251-279.161S1237.039,512.5,1237.039,512.5z"/>
						<path fill="#0D3542" d="M988.5,800.5l166,171c0,0-7,20-30.727,16.99L969.789,830.4C964.5,807.5,988.5,800.5,988.5,800.5z"/>
						<circle fill="#71391B" cx="884.5" cy="1084.5" r="20"/>
						<line fill="none" stroke="#71391B" stroke-width="4" stroke-miterlimit="10" x1="658.5" y1="1309.5" x2="872.5" y2="1096.5"/>
					</g>
				</g>
				<g display="none">
					<g display="inline">
						<defs>
							<path id="SVGID_8_" d="M1432.5,1048.5c0,282.773-229.227,512-512,512c-282.766,0-512-229.227-512-512
								c0-282.77,229.234-512,512-512C1203.273,536.5,1432.5,765.73,1432.5,1048.5z"/>
						</defs>
						<clipPath id="SVGID_9_">
							<use xlink:href="#SVGID_8_"  overflow="visible"/>
						</clipPath>
						<g id="Qk8Vq5_1_" clip-path="url(#SVGID_9_)">
						</g>
					</g>
				</g>
			</g>
		</g>
	</g>
</g>
</svg>
